<?xml version="1.0" encoding="UTF-8"?>
<!DOCTYPE svg PUBLIC "-//W3C//DTD SVG 1.1//EN" "http://www.w3.org/Graphics/SVG/1.1/DTD/svg11.dtd">
<!-- Creator: CorelDRAW 2020 (64-Bit) -->
<svg xmlns="http://www.w3.org/2000/svg" xml:space="preserve" width="1.5in" height="1in" version="1.1" style="shape-rendering:geometricPrecision; text-rendering:geometricPrecision; image-rendering:optimizeQuality; fill-rule:evenodd; clip-rule:evenodd"
viewBox="0 0 1.5 1"
 xmlns:xlink="http://www.w3.org/1999/xlink"
 xmlns:xodm="http://www.corel.com/coreldraw/odm/2003">
 <defs>
  <style type="text/css">
   <![CDATA[
    .fil0 {fill:none}
    .fil1 {fill:#F05545}
    .fil2 {fill:#F05545}
   ]]>
  </style>
 </defs>
 <g id="Layer_x0020_1">
  <metadata id="CorelCorpID_0Corel-Layer"/>
  <rect id="background" class="fil0" width="1.5" height="1"/>
  <path id="background_0" class="fil1" d="M-0 0.96601l0 -0.46628 0.68068 0.00081c-0.00265,0.00348 -0.00423,0.08479 0.00306,0.08948 0.00079,0.02763 -0.00153,0.13789 -0.00909,0.16129 -0.00488,0.01512 0.01807,0.02778 0,0.06606 -0.0012,0.00256 0.00346,0.03227 -0.00156,0.0512 -0.00281,0.01059 0.01467,0.0128 0.00106,0.05431 -0.00361,0.01101 0.00654,0.03625 0.00751,0.04327 -0.00074,0.00019 -0.00069,0.00007 -0.00149,0.00007l-0.68017 -0.0002z"/>
  <path id="bricks" class="fil2" d="M0.73327 0.49968l0.72432 0 0.04241 0.00005 0 0.46628 -0.7792 -0.00023c0.00348,-0.00747 0.00939,-0.05828 0.00683,-0.06158 -0.0121,-0.01561 0.00705,-0.05759 -0.00107,-0.07512 -0.01239,-0.02674 0.00526,-0.03398 0.00154,-0.04152 -0.01754,-0.0355 0.00683,-0.06011 -0.00046,-0.07426 -0.01293,-0.02506 0.00919,-0.01539 0.00354,-0.03144 -0.01452,-0.04128 0.00483,-0.09879 -0.00461,-0.11774 -0.01189,-0.02384 0.00441,-0.04136 0.00671,-0.06444z"/>
  <path id="background_1" class="fil1" d="M0.02914 0l0.99907 0 0.44953 0.00053c-0.00264,0.00348 -0.00422,0.08479 0.00306,0.08948 0.00079,0.02763 -0.00153,0.13789 -0.00909,0.16129 -0.00489,0.01513 0.01807,0.02778 0,0.06606 -0.00121,0.00255 0.00346,0.03227 -0.00156,0.0512 -0.00281,0.01059 0.01467,0.01279 0.00106,0.05431 -0.00361,0.01102 0.00654,0.03625 0.00752,0.04327 -0.00074,0.00019 -0.00069,0.00007 -0.0015,0.00007l-1.46053 -0.00043c0.00348,-0.00746 0.0094,-0.05828 0.00683,-0.06158 -0.0121,-0.01561 0.00705,-0.05759 -0.00107,-0.07511 -0.01239,-0.02675 0.00526,-0.03399 0.00154,-0.04153 -0.01754,-0.0355 0.00683,-0.06011 -0.00046,-0.07426 -0.01292,-0.02506 0.00919,-0.01538 0.00354,-0.03144 -0.01452,-0.04128 0.00483,-0.0988 -0.00461,-0.11774 -0.01183,-0.02373 0.00426,-0.0412 0.00668,-0.06412z"/>
 </g>
</svg>
