<?xml version="1.0" encoding="UTF-8"?>
<!DOCTYPE svg PUBLIC "-//W3C//DTD SVG 1.1//EN" "http://www.w3.org/Graphics/SVG/1.1/DTD/svg11.dtd">
<!-- Creator: CorelDRAW 2020 (64-Bit) -->
<svg xmlns="http://www.w3.org/2000/svg" xml:space="preserve" width="9in" height="3.5in" version="1.1" style="shape-rendering:geometricPrecision; text-rendering:geometricPrecision; image-rendering:optimizeQuality; fill-rule:evenodd; clip-rule:evenodd"
viewBox="0 0 9000 3500"
 xmlns:xlink="http://www.w3.org/1999/xlink"
 xmlns:xodm="http://www.corel.com/coreldraw/odm/2003">
 <defs>
  <style type="text/css">
   <![CDATA[
    .fil0 {fill:none}
    .fil2 {fill:#983D37;fill-rule:nonzero}
    .fil1 {fill:#F05545;fill-rule:nonzero}
   ]]>
  </style>
 </defs>
 <g id="Layer_x0020_1">
  <metadata id="CorelCorpID_0Corel-Layer"/>
  <rect class="fil0" width="9000" height="3500"/>
  <path id="left_eye_white" class="fil1" d="M2590.47 879.43c0,92.06 -74.63,166.68 -166.68,166.68 -92.04,0 -166.67,-74.62 -166.67,-166.68 0,-92.06 74.63,-166.68 166.67,-166.68 92.06,0 166.68,74.62 166.68,166.68z"/>
  <path id="right_eye_white" class="fil1" d="M2216.81 879.43c0,92.06 -74.63,166.68 -166.68,166.68 -92.04,0 -166.67,-74.62 -166.67,-166.68 0,-92.06 74.62,-166.68 166.67,-166.68 92.06,0 166.68,74.62 166.68,166.68z"/>
  <path id="right_pupil" class="fil2" d="M2102.06 879.44c0,28.68 -23.25,51.91 -51.92,51.91 -28.68,0 -51.93,-23.23 -51.93,-51.91 0,-28.68 23.25,-51.93 51.93,-51.93 28.67,0 51.92,23.25 51.92,51.93z"/>
  <path id="left_pupil" class="fil2" d="M2475.72 879.44c0,28.68 -23.25,51.91 -51.92,51.91 -28.68,0 -51.93,-23.23 -51.93,-51.91 0,-28.68 23.25,-51.93 51.93,-51.93 28.67,0 51.92,23.25 51.92,51.93z"/>
 </g>
</svg>
