<?xml version="1.0" encoding="UTF-8"?>
<!DOCTYPE svg PUBLIC "-//W3C//DTD SVG 1.1//EN" "http://www.w3.org/Graphics/SVG/1.1/DTD/svg11.dtd">
<!-- Creator: CorelDRAW 2020 (64-Bit) -->
<svg xmlns="http://www.w3.org/2000/svg" xml:space="preserve" width="2.708in" height="3.772in" version="1.1" style="shape-rendering:geometricPrecision; text-rendering:geometricPrecision; image-rendering:optimizeQuality; fill-rule:evenodd; clip-rule:evenodd"
viewBox="0 0 2.70268 3.76459"
 xmlns:xlink="http://www.w3.org/1999/xlink"
 xmlns:xodm="http://www.corel.com/coreldraw/odm/2003">
 <defs>
  <style type="text/css">
   <![CDATA[
    .fil0 {fill:none}
    .fil1 {fill:#A7DBD8;fill-rule:nonzero}
    .fil4 {fill:#1C1616;fill-rule:nonzero}
    .fil3 {fill:#E54699;fill-rule:nonzero}
    .fil2 {fill:#F4F2C3;fill-rule:nonzero}
   ]]>
  </style>
 </defs>
 <g id="Layer_x0020_1">
  <metadata id="CorelCorpID_0Corel-Layer"/>
  <rect class="fil0" width="2.70268" height="3.76459"/>
  <polygon id="background" class="fil1" points="2.39587,3.41283 0.18738,3.41283 0.18738,0.05706 2.39587,0.05706 "/>
  <circle class="fil2" cx="1.30205" cy="0.87908" r="0.15345"/>
  <path class="fil3" d="M1.73568 0.88514c0,-0.23951 -0.19414,-0.43377 -0.43377,-0.43377 -0.23963,0 -0.43377,0.19414 -0.43377,0.43377l0.86743 0 0.0001 0z"/>
  <path class="fil4" d="M1.32022 0.10594c0,0.00742 0.0016,0.00742 0.0016,0.01474 0,0.00732 0.0016,0.00742 0.0016,0.01474 0,0.00732 0,0.00742 0,0.01474 0,0.00732 -0.00263,0.00742 -0.00263,0.01474 0,0.00732 0.00491,0.00742 0.00491,0.01474 0,0.00732 -0.00411,0.00742 -0.00411,0.01474 0,0.00732 0.00343,0.00742 0.00343,0.01474 0,0.00732 -0.00297,0.00742 -0.00297,0.01474 0,0.00732 -0.00126,0.00742 -0.00126,0.01474 0,0.00732 0.00491,0.00742 0.00491,0.01474 0,0.00732 -0.00148,0.00742 -0.00148,0.01474 0,0.00732 -0.00193,0.00742 -0.00193,0.01474 0,0.00732 -0.00126,0.00742 -0.00126,0.01474 0,0.00732 0.00319,0.00742 0.00319,0.01474 0,0.00732 0.00068,0.00742 0.00068,0.01474 0,0.00732 -0.00217,0.00742 -0.00217,0.01474 0,0.00732 0.00046,0.00742 0.00046,0.01474 0,0.00732 -0.00217,0.00742 -0.00217,0.01474 0,0.00732 0.00481,0.00742 0.00481,0.01474 0,0.00732 0.00012,0.00742 0.00012,0.01474 0,0.00732 -0.00263,0.00742 -0.00263,0.01474 0,0.00732 -0.00068,0.00742 -0.00068,0.01474 0,0.00732 -0.00114,0.00742 -0.00114,0.01474 0,0.00571 -0.00778,0.00594 -0.01965,0.00594 -0.01187,0 -0.02332,-0.00022 -0.02332,-0.00594 0,-0.00742 0.0016,-0.00742 0.0016,-0.01474 0,-0.00732 0.00297,-0.00742 0.00297,-0.01474 0,-0.00732 -0.0024,-0.00742 -0.0024,-0.01474 0,-0.00732 -0.00126,-0.00742 -0.00126,-0.01474 0,-0.00732 0.00034,-0.00742 0.00034,-0.01474 0,-0.00732 0.00068,-0.00742 0.00068,-0.01474 0,-0.00732 0.00263,-0.00742 0.00263,-0.01474 0,-0.00732 -0.0016,-0.00742 -0.0016,-0.01474 0,-0.00732 -0.00331,-0.00742 -0.00331,-0.01474 0,-0.00732 0.00457,-0.00742 0.00457,-0.01474 0,-0.00732 -0.00469,-0.00742 -0.00469,-0.01474 0,-0.00732 0.00469,-0.00742 0.00469,-0.01474 0,-0.00732 -0.00193,-0.00742 -0.00193,-0.01474 0,-0.00732 -0.00251,-0.00742 -0.00251,-0.01474 0,-0.00732 0.00491,-0.00742 0.00491,-0.01474 0,-0.00732 -0.00239,-0.00742 -0.00239,-0.01474 0,-0.00732 -0.00183,-0.00742 -0.00183,-0.01474 0,-0.00732 0.00239,-0.00742 0.00239,-0.01474 0,-0.00732 0.00194,-0.00742 0.00194,-0.01474 0,-0.00732 -0.00491,-0.00742 -0.00491,-0.01474 0,-0.00732 0.00092,-0.00742 0.00092,-0.01474 0,-0.00732 0.00114,-0.00742 0.00114,-0.01474 0,-0.00732 0.0016,-0.00742 0.0016,-0.01474 0,-0.00571 0.00788,-0.00606 0.01976,-0.00606 0.01189,0 0.01839,0.00034 0.01839,0.00606l0.00002 0z"/>
 </g>
</svg>
